<?xml version="1.0" encoding="utf-8" standalone="no"?>
<!DOCTYPE svg PUBLIC "-//W3C//DTD SVG 1.1//EN"
  "http://www.w3.org/Graphics/SVG/1.1/DTD/svg11.dtd">
<!-- Created with matplotlib (https://matplotlib.org/) -->
<svg height="1296pt" version="1.1" viewBox="0 0 1296 1296" width="1296pt" xmlns="http://www.w3.org/2000/svg" xmlns:xlink="http://www.w3.org/1999/xlink">
 <metadata>
  <rdf:RDF xmlns:cc="http://creativecommons.org/ns#" xmlns:dc="http://purl.org/dc/elements/1.1/" xmlns:rdf="http://www.w3.org/1999/02/22-rdf-syntax-ns#">
   <cc:Work>
    <dc:type rdf:resource="http://purl.org/dc/dcmitype/StillImage"/>
    <dc:date>2022-04-24T15:53:09.922187</dc:date>
    <dc:format>image/svg+xml</dc:format>
    <dc:creator>
     <cc:Agent>
      <dc:title>Matplotlib v3.3.4, https://matplotlib.org/</dc:title>
     </cc:Agent>
    </dc:creator>
   </cc:Work>
  </rdf:RDF>
 </metadata>
 <defs>
  <style type="text/css">*{stroke-linecap:butt;stroke-linejoin:round;}</style>
 </defs>
 <g id="figure_1">
  <g id="patch_1">
   <path d="M 0 1296 
L 1296 1296 
L 1296 0 
L 0 0 
z
" style="fill:#ffffff;"/>
  </g>
  <g id="axes_1">
   <g id="matplotlib.axis_1"/>
   <g id="matplotlib.axis_2"/>
   <g id="patch_2">
    <path d="M 1055.592 644.76 
C 1055.592 563.527801 1030.302763 484.275935 983.251422 418.057799 
C 936.200081 351.839664 869.680736 301.883878 792.970956 275.157865 
L 664.2 644.76 
L 1055.592 644.76 
z
" style="fill:#666666;stroke:#ffffff;stroke-linejoin:miter;"/>
   </g>
   <g id="patch_3">
    <path d="M 792.970956 275.157865 
C 740.614219 256.916555 684.974122 250.006777 629.745936 254.887437 
C 574.517751 259.768097 520.951793 276.328701 472.605583 303.469395 
L 664.2 644.76 
L 792.970956 275.157865 
z
" style="fill:#a6761d;stroke:#ffffff;stroke-linejoin:miter;"/>
   </g>
   <g id="patch_4">
    <path d="M 472.605583 303.469395 
C 444.457901 319.270998 418.372857 338.494272 394.945296 360.700848 
C 371.517734 382.907424 350.927101 407.927208 333.642947 435.189649 
L 664.2 644.76 
L 472.605583 303.469395 
z
" style="fill:#e6ab02;stroke:#ffffff;stroke-linejoin:miter;"/>
   </g>
   <g id="patch_5">
    <path d="M 333.642947 435.189649 
C 290.147268 503.795743 269.070431 584.270401 273.352058 665.389683 
C 277.633685 746.508964 307.065015 824.317708 357.54121 887.963791 
L 664.2 644.76 
L 333.642947 435.189649 
z
" style="fill:#66a61e;stroke:#ffffff;stroke-linejoin:miter;"/>
   </g>
   <g id="patch_6">
    <path d="M 357.54121 887.963791 
C 408.017404 951.609875 477.077378 997.990084 555.089215 1020.63569 
C 633.101052 1043.281296 716.261102 1041.088159 792.970887 1014.36216 
L 664.2 644.76 
L 357.54121 887.963791 
z
" style="fill:#e7298a;stroke:#ffffff;stroke-linejoin:miter;"/>
   </g>
   <g id="patch_7">
    <path d="M 792.970887 1014.36216 
C 869.680672 987.63616 936.200027 937.680387 983.25138 871.46226 
C 1030.302732 805.244133 1055.591985 725.992272 1055.592 644.760073 
L 664.2 644.76 
L 792.970887 1014.36216 
z
" style="fill:#7570b3;stroke:#ffffff;stroke-linejoin:miter;"/>
   </g>
   <g id="text_1">
    <!-- $M(Z') = 350$ GeV -->
    <g transform="translate(1015.156564 400.612579)scale(0.2 -0.2)">
     <defs>
      <path d="M 16.890625 72.90625 
L 31.6875 72.90625 
L 40.1875 23.78125 
L 68.40625 72.90625 
L 83.59375 72.90625 
L 69.390625 0 
L 59.8125 0 
L 72.21875 63.921875 
L 43.609375 14.015625 
L 33.984375 14.015625 
L 24.703125 64.109375 
L 12.3125 0 
L 2.6875 0 
z
" id="DejaVuSans-Oblique-77"/>
      <path d="M 31 75.875 
Q 24.46875 64.65625 21.28125 53.65625 
Q 18.109375 42.671875 18.109375 31.390625 
Q 18.109375 20.125 21.3125 9.0625 
Q 24.515625 -2 31 -13.1875 
L 23.1875 -13.1875 
Q 15.875 -1.703125 12.234375 9.375 
Q 8.59375 20.453125 8.59375 31.390625 
Q 8.59375 42.28125 12.203125 53.3125 
Q 15.828125 64.359375 23.1875 75.875 
z
" id="DejaVuSans-40"/>
      <path d="M 13.09375 72.90625 
L 70.3125 72.90625 
L 68.890625 65.375 
L 12.40625 8.296875 
L 58.890625 8.296875 
L 57.328125 0 
L -2.203125 0 
L -0.78125 7.515625 
L 55.71875 64.59375 
L 11.53125 64.59375 
z
" id="DejaVuSans-Oblique-90"/>
      <path d="M 3.515625 5.421875 
Q 2.875 5.609375 2.875 6.390625 
L 15.09375 51.8125 
Q 15.671875 53.65625 17.078125 54.78125 
Q 18.5 55.90625 20.3125 55.90625 
Q 22.65625 55.90625 24.4375 54.359375 
Q 26.21875 52.828125 26.21875 50.484375 
Q 26.21875 49.46875 25.6875 48.1875 
L 7.625 4.984375 
Q 7.28125 4.296875 6.6875 4.296875 
Q 6.15625 4.296875 5 4.78125 
Q 3.859375 5.28125 3.515625 5.421875 
z
" id="Cmsy10-48"/>
      <path d="M 8.015625 75.875 
L 15.828125 75.875 
Q 23.140625 64.359375 26.78125 53.3125 
Q 30.421875 42.28125 30.421875 31.390625 
Q 30.421875 20.453125 26.78125 9.375 
Q 23.140625 -1.703125 15.828125 -13.1875 
L 8.015625 -13.1875 
Q 14.5 -2 17.703125 9.0625 
Q 20.90625 20.125 20.90625 31.390625 
Q 20.90625 42.671875 17.703125 53.65625 
Q 14.5 64.65625 8.015625 75.875 
z
" id="DejaVuSans-41"/>
      <path d="M 10.59375 45.40625 
L 73.1875 45.40625 
L 73.1875 37.203125 
L 10.59375 37.203125 
z
M 10.59375 25.484375 
L 73.1875 25.484375 
L 73.1875 17.1875 
L 10.59375 17.1875 
z
" id="DejaVuSans-61"/>
      <path d="M 40.578125 39.3125 
Q 47.65625 37.796875 51.625 33 
Q 55.609375 28.21875 55.609375 21.1875 
Q 55.609375 10.40625 48.1875 4.484375 
Q 40.765625 -1.421875 27.09375 -1.421875 
Q 22.515625 -1.421875 17.65625 -0.515625 
Q 12.796875 0.390625 7.625 2.203125 
L 7.625 11.71875 
Q 11.71875 9.328125 16.59375 8.109375 
Q 21.484375 6.890625 26.8125 6.890625 
Q 36.078125 6.890625 40.9375 10.546875 
Q 45.796875 14.203125 45.796875 21.1875 
Q 45.796875 27.640625 41.28125 31.265625 
Q 36.765625 34.90625 28.71875 34.90625 
L 20.21875 34.90625 
L 20.21875 43.015625 
L 29.109375 43.015625 
Q 36.375 43.015625 40.234375 45.921875 
Q 44.09375 48.828125 44.09375 54.296875 
Q 44.09375 59.90625 40.109375 62.90625 
Q 36.140625 65.921875 28.71875 65.921875 
Q 24.65625 65.921875 20.015625 65.03125 
Q 15.375 64.15625 9.8125 62.3125 
L 9.8125 71.09375 
Q 15.4375 72.65625 20.34375 73.4375 
Q 25.25 74.21875 29.59375 74.21875 
Q 40.828125 74.21875 47.359375 69.109375 
Q 53.90625 64.015625 53.90625 55.328125 
Q 53.90625 49.265625 50.4375 45.09375 
Q 46.96875 40.921875 40.578125 39.3125 
z
" id="DejaVuSans-51"/>
      <path d="M 10.796875 72.90625 
L 49.515625 72.90625 
L 49.515625 64.59375 
L 19.828125 64.59375 
L 19.828125 46.734375 
Q 21.96875 47.46875 24.109375 47.828125 
Q 26.265625 48.1875 28.421875 48.1875 
Q 40.625 48.1875 47.75 41.5 
Q 54.890625 34.8125 54.890625 23.390625 
Q 54.890625 11.625 47.5625 5.09375 
Q 40.234375 -1.421875 26.90625 -1.421875 
Q 22.3125 -1.421875 17.546875 -0.640625 
Q 12.796875 0.140625 7.71875 1.703125 
L 7.71875 11.625 
Q 12.109375 9.234375 16.796875 8.0625 
Q 21.484375 6.890625 26.703125 6.890625 
Q 35.15625 6.890625 40.078125 11.328125 
Q 45.015625 15.765625 45.015625 23.390625 
Q 45.015625 31 40.078125 35.4375 
Q 35.15625 39.890625 26.703125 39.890625 
Q 22.75 39.890625 18.8125 39.015625 
Q 14.890625 38.140625 10.796875 36.28125 
z
" id="DejaVuSans-53"/>
      <path d="M 31.78125 66.40625 
Q 24.171875 66.40625 20.328125 58.90625 
Q 16.5 51.421875 16.5 36.375 
Q 16.5 21.390625 20.328125 13.890625 
Q 24.171875 6.390625 31.78125 6.390625 
Q 39.453125 6.390625 43.28125 13.890625 
Q 47.125 21.390625 47.125 36.375 
Q 47.125 51.421875 43.28125 58.90625 
Q 39.453125 66.40625 31.78125 66.40625 
z
M 31.78125 74.21875 
Q 44.046875 74.21875 50.515625 64.515625 
Q 56.984375 54.828125 56.984375 36.375 
Q 56.984375 17.96875 50.515625 8.265625 
Q 44.046875 -1.421875 31.78125 -1.421875 
Q 19.53125 -1.421875 13.0625 8.265625 
Q 6.59375 17.96875 6.59375 36.375 
Q 6.59375 54.828125 13.0625 64.515625 
Q 19.53125 74.21875 31.78125 74.21875 
z
" id="DejaVuSans-48"/>
      <path id="ArialMT-32"/>
      <path d="M 41.21875 28.078125 
L 41.21875 36.46875 
L 71.53125 36.53125 
L 71.53125 9.96875 
Q 64.546875 4.390625 57.125 1.578125 
Q 49.703125 -1.21875 41.890625 -1.21875 
Q 31.34375 -1.21875 22.71875 3.296875 
Q 14.109375 7.8125 9.71875 16.359375 
Q 5.328125 24.90625 5.328125 35.453125 
Q 5.328125 45.90625 9.6875 54.953125 
Q 14.0625 64.015625 22.265625 68.40625 
Q 30.46875 72.796875 41.15625 72.796875 
Q 48.921875 72.796875 55.1875 70.28125 
Q 61.46875 67.78125 65.03125 63.28125 
Q 68.609375 58.796875 70.453125 51.5625 
L 61.921875 49.21875 
Q 60.296875 54.6875 57.90625 57.8125 
Q 55.515625 60.9375 51.0625 62.8125 
Q 46.625 64.703125 41.21875 64.703125 
Q 34.71875 64.703125 29.984375 62.71875 
Q 25.25 60.75 22.34375 57.515625 
Q 19.4375 54.296875 17.828125 50.4375 
Q 15.09375 43.796875 15.09375 36.03125 
Q 15.09375 26.46875 18.390625 20.015625 
Q 21.6875 13.578125 27.984375 10.453125 
Q 34.28125 7.328125 41.359375 7.328125 
Q 47.515625 7.328125 53.375 9.6875 
Q 59.234375 12.0625 62.25 14.75 
L 62.25 28.078125 
z
" id="ArialMT-71"/>
      <path d="M 42.09375 16.703125 
L 51.171875 15.578125 
Q 49.03125 7.625 43.21875 3.21875 
Q 37.40625 -1.171875 28.375 -1.171875 
Q 17 -1.171875 10.328125 5.828125 
Q 3.65625 12.84375 3.65625 25.484375 
Q 3.65625 38.578125 10.390625 45.796875 
Q 17.140625 53.03125 27.875 53.03125 
Q 38.28125 53.03125 44.875 45.953125 
Q 51.46875 38.875 51.46875 26.03125 
Q 51.46875 25.25 51.421875 23.6875 
L 12.75 23.6875 
Q 13.234375 15.140625 17.578125 10.59375 
Q 21.921875 6.0625 28.421875 6.0625 
Q 33.25 6.0625 36.671875 8.59375 
Q 40.09375 11.140625 42.09375 16.703125 
z
M 13.234375 30.90625 
L 42.1875 30.90625 
Q 41.609375 37.453125 38.875 40.71875 
Q 34.671875 45.796875 27.984375 45.796875 
Q 21.921875 45.796875 17.796875 41.75 
Q 13.671875 37.703125 13.234375 30.90625 
z
" id="ArialMT-101"/>
      <path d="M 28.171875 0 
L 0.4375 71.578125 
L 10.6875 71.578125 
L 29.296875 19.578125 
Q 31.546875 13.328125 33.0625 7.859375 
Q 34.71875 13.71875 36.921875 19.578125 
L 56.25 71.578125 
L 65.921875 71.578125 
L 37.890625 0 
z
" id="ArialMT-86"/>
     </defs>
     <use transform="translate(0 0.584375)" xlink:href="#DejaVuSans-Oblique-77"/>
     <use transform="translate(86.279297 0.584375)" xlink:href="#DejaVuSans-40"/>
     <use transform="translate(125.292969 0.584375)" xlink:href="#DejaVuSans-Oblique-90"/>
     <use transform="translate(200.815599 38.865625)scale(0.7)" xlink:href="#Cmsy10-48"/>
     <use transform="translate(222.793138 0.584375)" xlink:href="#DejaVuSans-41"/>
     <use transform="translate(281.289232 0.584375)" xlink:href="#DejaVuSans-61"/>
     <use transform="translate(384.560716 0.584375)" xlink:href="#DejaVuSans-51"/>
     <use transform="translate(448.183763 0.584375)" xlink:href="#DejaVuSans-53"/>
     <use transform="translate(511.80681 0.584375)" xlink:href="#DejaVuSans-48"/>
     <use transform="translate(575.429857 0.584375)" xlink:href="#ArialMT-32"/>
     <use transform="translate(603.21306 0.584375)" xlink:href="#ArialMT-71"/>
     <use transform="translate(680.996263 0.584375)" xlink:href="#ArialMT-101"/>
     <use transform="translate(736.611497 0.584375)" xlink:href="#ArialMT-86"/>
    </g>
   </g>
   <g id="text_2">
    <!-- 19.66% -->
    <g transform="translate(821.716791 500.908992)scale(0.2 -0.2)">
     <defs>
      <path d="M 37.25 0 
L 28.46875 0 
L 28.46875 56 
Q 25.296875 52.984375 20.140625 49.953125 
Q 14.984375 46.921875 10.890625 45.40625 
L 10.890625 53.90625 
Q 18.265625 57.375 23.78125 62.296875 
Q 29.296875 67.234375 31.59375 71.875 
L 37.25 71.875 
z
" id="ArialMT-49"/>
      <path d="M 5.46875 16.546875 
L 13.921875 17.328125 
Q 14.984375 11.375 18.015625 8.6875 
Q 21.046875 6 25.78125 6 
Q 29.828125 6 32.875 7.859375 
Q 35.9375 9.71875 37.890625 12.8125 
Q 39.84375 15.921875 41.15625 21.1875 
Q 42.484375 26.46875 42.484375 31.9375 
Q 42.484375 32.515625 42.4375 33.6875 
Q 39.796875 29.5 35.234375 26.875 
Q 30.671875 24.265625 25.34375 24.265625 
Q 16.453125 24.265625 10.296875 30.703125 
Q 4.15625 37.15625 4.15625 47.703125 
Q 4.15625 58.59375 10.578125 65.234375 
Q 17 71.875 26.65625 71.875 
Q 33.640625 71.875 39.421875 68.109375 
Q 45.21875 64.359375 48.21875 57.390625 
Q 51.21875 50.4375 51.21875 37.25 
Q 51.21875 23.53125 48.234375 15.40625 
Q 45.265625 7.28125 39.375 3.03125 
Q 33.5 -1.21875 25.59375 -1.21875 
Q 17.1875 -1.21875 11.859375 3.4375 
Q 6.546875 8.109375 5.46875 16.546875 
z
M 41.453125 48.140625 
Q 41.453125 55.71875 37.421875 60.15625 
Q 33.40625 64.59375 27.734375 64.59375 
Q 21.875 64.59375 17.53125 59.8125 
Q 13.1875 55.03125 13.1875 47.40625 
Q 13.1875 40.578125 17.3125 36.296875 
Q 21.4375 32.03125 27.484375 32.03125 
Q 33.59375 32.03125 37.515625 36.296875 
Q 41.453125 40.578125 41.453125 48.140625 
z
" id="ArialMT-57"/>
      <path d="M 9.078125 0 
L 9.078125 10.015625 
L 19.09375 10.015625 
L 19.09375 0 
z
" id="ArialMT-46"/>
      <path d="M 49.75 54.046875 
L 41.015625 53.375 
Q 39.84375 58.546875 37.703125 60.890625 
Q 34.125 64.65625 28.90625 64.65625 
Q 24.703125 64.65625 21.53125 62.3125 
Q 17.390625 59.28125 14.984375 53.46875 
Q 12.59375 47.65625 12.5 36.921875 
Q 15.671875 41.75 20.265625 44.09375 
Q 24.859375 46.4375 29.890625 46.4375 
Q 38.671875 46.4375 44.84375 39.96875 
Q 51.03125 33.5 51.03125 23.25 
Q 51.03125 16.5 48.125 10.71875 
Q 45.21875 4.9375 40.140625 1.859375 
Q 35.0625 -1.21875 28.609375 -1.21875 
Q 17.625 -1.21875 10.6875 6.859375 
Q 3.765625 14.9375 3.765625 33.5 
Q 3.765625 54.25 11.421875 63.671875 
Q 18.109375 71.875 29.4375 71.875 
Q 37.890625 71.875 43.28125 67.140625 
Q 48.6875 62.40625 49.75 54.046875 
z
M 13.875 23.1875 
Q 13.875 18.65625 15.796875 14.5 
Q 17.71875 10.359375 21.1875 8.171875 
Q 24.65625 6 28.46875 6 
Q 34.03125 6 38.03125 10.484375 
Q 42.046875 14.984375 42.046875 22.703125 
Q 42.046875 30.125 38.078125 34.390625 
Q 34.125 38.671875 28.125 38.671875 
Q 22.171875 38.671875 18.015625 34.390625 
Q 13.875 30.125 13.875 23.1875 
z
" id="ArialMT-54"/>
      <path d="M 5.8125 54.390625 
Q 5.8125 62.0625 9.671875 67.421875 
Q 13.53125 72.796875 20.84375 72.796875 
Q 27.59375 72.796875 32 67.984375 
Q 36.421875 63.1875 36.421875 53.859375 
Q 36.421875 44.78125 31.953125 39.875 
Q 27.484375 34.96875 20.953125 34.96875 
Q 14.453125 34.96875 10.125 39.796875 
Q 5.8125 44.625 5.8125 54.390625 
z
M 21.09375 66.75 
Q 17.828125 66.75 15.65625 63.90625 
Q 13.484375 61.078125 13.484375 53.515625 
Q 13.484375 46.625 15.671875 43.8125 
Q 17.875 41.015625 21.09375 41.015625 
Q 24.421875 41.015625 26.59375 43.84375 
Q 28.765625 46.6875 28.765625 54.203125 
Q 28.765625 61.140625 26.5625 63.9375 
Q 24.359375 66.75 21.09375 66.75 
z
M 21.140625 -2.640625 
L 60.296875 72.796875 
L 67.4375 72.796875 
L 28.421875 -2.640625 
z
M 52.09375 16.796875 
Q 52.09375 24.515625 55.953125 29.859375 
Q 59.8125 35.203125 67.1875 35.203125 
Q 73.921875 35.203125 78.34375 30.390625 
Q 82.765625 25.59375 82.765625 16.265625 
Q 82.765625 7.171875 78.296875 2.265625 
Q 73.828125 -2.640625 67.234375 -2.640625 
Q 60.75 -2.640625 56.421875 2.21875 
Q 52.09375 7.078125 52.09375 16.796875 
z
M 67.4375 29.15625 
Q 64.109375 29.15625 61.9375 26.3125 
Q 59.765625 23.484375 59.765625 15.921875 
Q 59.765625 9.078125 61.953125 6.25 
Q 64.15625 3.421875 67.390625 3.421875 
Q 70.75 3.421875 72.921875 6.25 
Q 75.09375 9.078125 75.09375 16.609375 
Q 75.09375 23.53125 72.890625 26.34375 
Q 70.703125 29.15625 67.4375 29.15625 
z
" id="ArialMT-37"/>
     </defs>
     <use xlink:href="#ArialMT-49"/>
     <use x="55.615234" xlink:href="#ArialMT-57"/>
     <use x="111.230469" xlink:href="#ArialMT-46"/>
     <use x="139.013672" xlink:href="#ArialMT-54"/>
     <use x="194.628906" xlink:href="#ArialMT-54"/>
     <use x="250.244141" xlink:href="#ArialMT-37"/>
    </g>
    <!-- ($2.5 \times 10^{5}$) -->
    <g transform="translate(803.230853 526.483992)scale(0.2 -0.2)">
     <defs>
      <path d="M 23.390625 -21.046875 
Q 16.109375 -11.859375 11.078125 0.4375 
Q 6.0625 12.75 6.0625 25.921875 
Q 6.0625 37.546875 9.8125 48.1875 
Q 14.203125 60.546875 23.390625 72.796875 
L 29.6875 72.796875 
Q 23.78125 62.640625 21.875 58.296875 
Q 18.890625 51.5625 17.1875 44.234375 
Q 15.09375 35.109375 15.09375 25.875 
Q 15.09375 2.390625 29.6875 -21.046875 
z
" id="ArialMT-40"/>
      <path d="M 19.1875 8.296875 
L 53.609375 8.296875 
L 53.609375 0 
L 7.328125 0 
L 7.328125 8.296875 
Q 12.9375 14.109375 22.625 23.890625 
Q 32.328125 33.6875 34.8125 36.53125 
Q 39.546875 41.84375 41.421875 45.53125 
Q 43.3125 49.21875 43.3125 52.78125 
Q 43.3125 58.59375 39.234375 62.25 
Q 35.15625 65.921875 28.609375 65.921875 
Q 23.96875 65.921875 18.8125 64.3125 
Q 13.671875 62.703125 7.8125 59.421875 
L 7.8125 69.390625 
Q 13.765625 71.78125 18.9375 73 
Q 24.125 74.21875 28.421875 74.21875 
Q 39.75 74.21875 46.484375 68.546875 
Q 53.21875 62.890625 53.21875 53.421875 
Q 53.21875 48.921875 51.53125 44.890625 
Q 49.859375 40.875 45.40625 35.40625 
Q 44.1875 33.984375 37.640625 27.21875 
Q 31.109375 20.453125 19.1875 8.296875 
z
" id="DejaVuSans-50"/>
      <path d="M 10.6875 12.40625 
L 21 12.40625 
L 21 0 
L 10.6875 0 
z
" id="DejaVuSans-46"/>
      <path d="M 70.125 53.71875 
L 47.796875 31.296875 
L 70.125 8.984375 
L 64.3125 3.078125 
L 41.890625 25.484375 
L 19.484375 3.078125 
L 13.71875 8.984375 
L 35.984375 31.296875 
L 13.71875 53.71875 
L 19.484375 59.625 
L 41.890625 37.203125 
L 64.3125 59.625 
z
" id="DejaVuSans-215"/>
      <path d="M 12.40625 8.296875 
L 28.515625 8.296875 
L 28.515625 63.921875 
L 10.984375 60.40625 
L 10.984375 69.390625 
L 28.421875 72.90625 
L 38.28125 72.90625 
L 38.28125 8.296875 
L 54.390625 8.296875 
L 54.390625 0 
L 12.40625 0 
z
" id="DejaVuSans-49"/>
      <path d="M 12.359375 -21.046875 
L 6.0625 -21.046875 
Q 20.65625 2.390625 20.65625 25.875 
Q 20.65625 35.0625 18.5625 44.09375 
Q 16.890625 51.421875 13.921875 58.15625 
Q 12.015625 62.546875 6.0625 72.796875 
L 12.359375 72.796875 
Q 21.53125 60.546875 25.921875 48.1875 
Q 29.6875 37.546875 29.6875 25.921875 
Q 29.6875 12.75 24.625 0.4375 
Q 19.578125 -11.859375 12.359375 -21.046875 
z
" id="ArialMT-41"/>
     </defs>
     <use transform="translate(0 0.684375)" xlink:href="#ArialMT-40"/>
     <use transform="translate(33.300781 0.684375)" xlink:href="#DejaVuSans-50"/>
     <use transform="translate(96.923828 0.684375)" xlink:href="#DejaVuSans-46"/>
     <use transform="translate(128.710938 0.684375)" xlink:href="#DejaVuSans-53"/>
     <use transform="translate(211.816406 0.684375)" xlink:href="#DejaVuSans-215"/>
     <use transform="translate(315.087891 0.684375)" xlink:href="#DejaVuSans-49"/>
     <use transform="translate(378.710938 0.684375)" xlink:href="#DejaVuSans-48"/>
     <use transform="translate(443.291016 38.965625)scale(0.7)" xlink:href="#DejaVuSans-53"/>
     <use transform="translate(490.561523 0.684375)" xlink:href="#ArialMT-41"/>
    </g>
   </g>
   <g id="text_3">
    <!-- $M(Z') = 1000$ GeV -->
    <g transform="translate(452.90053 221.125181)scale(0.2 -0.2)">
     <use transform="translate(0 0.584375)" xlink:href="#DejaVuSans-Oblique-77"/>
     <use transform="translate(86.279297 0.584375)" xlink:href="#DejaVuSans-40"/>
     <use transform="translate(125.292969 0.584375)" xlink:href="#DejaVuSans-Oblique-90"/>
     <use transform="translate(200.815599 38.865625)scale(0.7)" xlink:href="#Cmsy10-48"/>
     <use transform="translate(222.793138 0.584375)" xlink:href="#DejaVuSans-41"/>
     <use transform="translate(281.289232 0.584375)" xlink:href="#DejaVuSans-61"/>
     <use transform="translate(384.560716 0.584375)" xlink:href="#DejaVuSans-49"/>
     <use transform="translate(448.183763 0.584375)" xlink:href="#DejaVuSans-48"/>
     <use transform="translate(511.80681 0.584375)" xlink:href="#DejaVuSans-48"/>
     <use transform="translate(575.429857 0.584375)" xlink:href="#DejaVuSans-48"/>
     <use transform="translate(639.052904 0.584375)" xlink:href="#ArialMT-32"/>
     <use transform="translate(666.836107 0.584375)" xlink:href="#ArialMT-71"/>
     <use transform="translate(744.61931 0.584375)" xlink:href="#ArialMT-101"/>
     <use transform="translate(800.234544 0.584375)" xlink:href="#ArialMT-86"/>
    </g>
   </g>
   <g id="text_4">
    <!-- 13.48% -->
    <g transform="translate(609.613499 403.006775)scale(0.2 -0.2)">
     <defs>
      <path d="M 4.203125 18.890625 
L 12.984375 20.0625 
Q 14.5 12.59375 18.140625 9.296875 
Q 21.78125 6 27 6 
Q 33.203125 6 37.46875 10.296875 
Q 41.75 14.59375 41.75 20.953125 
Q 41.75 27 37.796875 30.921875 
Q 33.84375 34.859375 27.734375 34.859375 
Q 25.25 34.859375 21.53125 33.890625 
L 22.515625 41.609375 
Q 23.390625 41.5 23.921875 41.5 
Q 29.546875 41.5 34.03125 44.421875 
Q 38.53125 47.359375 38.53125 53.46875 
Q 38.53125 58.296875 35.25 61.46875 
Q 31.984375 64.65625 26.8125 64.65625 
Q 21.6875 64.65625 18.265625 61.421875 
Q 14.84375 58.203125 13.875 51.765625 
L 5.078125 53.328125 
Q 6.6875 62.15625 12.390625 67.015625 
Q 18.109375 71.875 26.609375 71.875 
Q 32.46875 71.875 37.390625 69.359375 
Q 42.328125 66.84375 44.9375 62.5 
Q 47.5625 58.15625 47.5625 53.265625 
Q 47.5625 48.640625 45.0625 44.828125 
Q 42.578125 41.015625 37.703125 38.765625 
Q 44.046875 37.3125 47.5625 32.6875 
Q 51.078125 28.078125 51.078125 21.140625 
Q 51.078125 11.765625 44.234375 5.25 
Q 37.40625 -1.265625 26.953125 -1.265625 
Q 17.53125 -1.265625 11.296875 4.34375 
Q 5.078125 9.96875 4.203125 18.890625 
z
" id="ArialMT-51"/>
      <path d="M 32.328125 0 
L 32.328125 17.140625 
L 1.265625 17.140625 
L 1.265625 25.203125 
L 33.9375 71.578125 
L 41.109375 71.578125 
L 41.109375 25.203125 
L 50.78125 25.203125 
L 50.78125 17.140625 
L 41.109375 17.140625 
L 41.109375 0 
z
M 32.328125 25.203125 
L 32.328125 57.46875 
L 9.90625 25.203125 
z
" id="ArialMT-52"/>
      <path d="M 17.671875 38.8125 
Q 12.203125 40.828125 9.5625 44.53125 
Q 6.9375 48.25 6.9375 53.421875 
Q 6.9375 61.234375 12.546875 66.546875 
Q 18.171875 71.875 27.484375 71.875 
Q 36.859375 71.875 42.578125 66.421875 
Q 48.296875 60.984375 48.296875 53.171875 
Q 48.296875 48.1875 45.671875 44.5 
Q 43.0625 40.828125 37.75 38.8125 
Q 44.34375 36.671875 47.78125 31.875 
Q 51.21875 27.09375 51.21875 20.453125 
Q 51.21875 11.28125 44.71875 5.03125 
Q 38.234375 -1.21875 27.640625 -1.21875 
Q 17.046875 -1.21875 10.546875 5.046875 
Q 4.046875 11.328125 4.046875 20.703125 
Q 4.046875 27.6875 7.59375 32.390625 
Q 11.140625 37.109375 17.671875 38.8125 
z
M 15.921875 53.71875 
Q 15.921875 48.640625 19.1875 45.40625 
Q 22.46875 42.1875 27.6875 42.1875 
Q 32.765625 42.1875 36.015625 45.375 
Q 39.265625 48.578125 39.265625 53.21875 
Q 39.265625 58.0625 35.90625 61.359375 
Q 32.5625 64.65625 27.59375 64.65625 
Q 22.5625 64.65625 19.234375 61.421875 
Q 15.921875 58.203125 15.921875 53.71875 
z
M 13.09375 20.65625 
Q 13.09375 16.890625 14.875 13.375 
Q 16.65625 9.859375 20.171875 7.921875 
Q 23.6875 6 27.734375 6 
Q 34.03125 6 38.125 10.046875 
Q 42.234375 14.109375 42.234375 20.359375 
Q 42.234375 26.703125 38.015625 30.859375 
Q 33.796875 35.015625 27.4375 35.015625 
Q 21.234375 35.015625 17.15625 30.90625 
Q 13.09375 26.8125 13.09375 20.65625 
z
" id="ArialMT-56"/>
     </defs>
     <use xlink:href="#ArialMT-49"/>
     <use x="55.615234" xlink:href="#ArialMT-51"/>
     <use x="111.230469" xlink:href="#ArialMT-46"/>
     <use x="139.013672" xlink:href="#ArialMT-52"/>
     <use x="194.628906" xlink:href="#ArialMT-56"/>
     <use x="250.244141" xlink:href="#ArialMT-37"/>
    </g>
    <!-- ($1.7 \times 10^{5}$) -->
    <g transform="translate(591.827562 428.581775)scale(0.2 -0.2)">
     <defs>
      <path d="M 8.203125 72.90625 
L 55.078125 72.90625 
L 55.078125 68.703125 
L 28.609375 0 
L 18.3125 0 
L 43.21875 64.59375 
L 8.203125 64.59375 
z
" id="DejaVuSans-55"/>
     </defs>
     <use transform="translate(0 0.684375)" xlink:href="#ArialMT-40"/>
     <use transform="translate(33.300781 0.684375)" xlink:href="#DejaVuSans-49"/>
     <use transform="translate(96.923828 0.684375)" xlink:href="#DejaVuSans-46"/>
     <use transform="translate(120.960938 0.684375)" xlink:href="#DejaVuSans-55"/>
     <use transform="translate(204.066406 0.684375)" xlink:href="#DejaVuSans-215"/>
     <use transform="translate(307.337891 0.684375)" xlink:href="#DejaVuSans-49"/>
     <use transform="translate(370.960938 0.684375)" xlink:href="#DejaVuSans-48"/>
     <use transform="translate(435.541016 38.965625)scale(0.7)" xlink:href="#DejaVuSans-53"/>
     <use transform="translate(482.811523 0.684375)" xlink:href="#ArialMT-41"/>
    </g>
   </g>
   <g id="text_5">
    <!-- $M(Z') = 3000$ GeV -->
    <g transform="translate(194.619825 337.519933)scale(0.2 -0.2)">
     <use transform="translate(0 0.584375)" xlink:href="#DejaVuSans-Oblique-77"/>
     <use transform="translate(86.279297 0.584375)" xlink:href="#DejaVuSans-40"/>
     <use transform="translate(125.292969 0.584375)" xlink:href="#DejaVuSans-Oblique-90"/>
     <use transform="translate(200.815599 38.865625)scale(0.7)" xlink:href="#Cmsy10-48"/>
     <use transform="translate(222.793138 0.584375)" xlink:href="#DejaVuSans-41"/>
     <use transform="translate(281.289232 0.584375)" xlink:href="#DejaVuSans-61"/>
     <use transform="translate(384.560716 0.584375)" xlink:href="#DejaVuSans-51"/>
     <use transform="translate(448.183763 0.584375)" xlink:href="#DejaVuSans-48"/>
     <use transform="translate(511.80681 0.584375)" xlink:href="#DejaVuSans-48"/>
     <use transform="translate(575.429857 0.584375)" xlink:href="#DejaVuSans-48"/>
     <use transform="translate(639.052904 0.584375)" xlink:href="#ArialMT-32"/>
     <use transform="translate(666.836107 0.584375)" xlink:href="#ArialMT-71"/>
     <use transform="translate(744.61931 0.584375)" xlink:href="#ArialMT-101"/>
     <use transform="translate(800.234544 0.584375)" xlink:href="#ArialMT-86"/>
    </g>
   </g>
   <g id="text_6">
    <!-- 7.87% -->
    <g transform="translate(474.294052 466.494821)scale(0.2 -0.2)">
     <defs>
      <path d="M 4.734375 62.203125 
L 4.734375 70.65625 
L 51.078125 70.65625 
L 51.078125 63.8125 
Q 44.234375 56.546875 37.515625 44.484375 
Q 30.8125 32.421875 27.15625 19.671875 
Q 24.515625 10.6875 23.78125 0 
L 14.75 0 
Q 14.890625 8.453125 18.0625 20.40625 
Q 21.234375 32.375 27.171875 43.484375 
Q 33.109375 54.59375 39.796875 62.203125 
z
" id="ArialMT-55"/>
     </defs>
     <use xlink:href="#ArialMT-55"/>
     <use x="55.615234" xlink:href="#ArialMT-46"/>
     <use x="83.398438" xlink:href="#ArialMT-56"/>
     <use x="139.013672" xlink:href="#ArialMT-55"/>
     <use x="194.628906" xlink:href="#ArialMT-37"/>
    </g>
    <!-- ($1 \times 10^{5}$) -->
    <g transform="translate(459.747177 492.069821)scale(0.2 -0.2)">
     <use transform="translate(0 0.684375)" xlink:href="#ArialMT-40"/>
     <use transform="translate(33.300781 0.684375)" xlink:href="#DejaVuSans-49"/>
     <use transform="translate(116.40625 0.684375)" xlink:href="#DejaVuSans-215"/>
     <use transform="translate(219.677734 0.684375)" xlink:href="#DejaVuSans-49"/>
     <use transform="translate(283.300781 0.684375)" xlink:href="#DejaVuSans-48"/>
     <use transform="translate(347.880859 38.965625)scale(0.7)" xlink:href="#DejaVuSans-53"/>
     <use transform="translate(395.151367 0.684375)" xlink:href="#ArialMT-41"/>
    </g>
   </g>
   <g id="text_7">
    <!-- $t\bar{t}h$ -->
    <g transform="translate(205.867264 672.622964)scale(0.2 -0.2)">
     <defs>
      <path d="M 42.28125 54.6875 
L 40.921875 47.703125 
L 23 47.703125 
L 17.1875 18.015625 
Q 16.890625 16.359375 16.75 15.234375 
Q 16.609375 14.109375 16.609375 13.484375 
Q 16.609375 10.359375 18.484375 8.9375 
Q 20.359375 7.515625 24.515625 7.515625 
L 33.59375 7.515625 
L 32.078125 0 
L 23.484375 0 
Q 15.484375 0 11.546875 3.125 
Q 7.625 6.25 7.625 12.59375 
Q 7.625 13.71875 7.765625 15.0625 
Q 7.90625 16.40625 8.203125 18.015625 
L 14.015625 47.703125 
L 6.390625 47.703125 
L 7.8125 54.6875 
L 15.28125 54.6875 
L 18.3125 70.21875 
L 27.296875 70.21875 
L 24.3125 54.6875 
z
" id="DejaVuSans-Oblique-116"/>
      <path d="M -39.40625 74.515625 
L -10.203125 74.515625 
L -10.203125 67.28125 
L -39.40625 67.28125 
z
" id="DejaVuSans-772"/>
      <path d="M 55.71875 33.015625 
L 49.3125 0 
L 40.28125 0 
L 46.6875 32.671875 
Q 47.125 34.96875 47.359375 36.71875 
Q 47.609375 38.484375 47.609375 39.5 
Q 47.609375 43.609375 45.015625 45.890625 
Q 42.4375 48.1875 37.796875 48.1875 
Q 30.5625 48.1875 25.265625 43.296875 
Q 19.96875 38.421875 18.40625 30.328125 
L 12.5 0 
L 3.515625 0 
L 18.3125 75.984375 
L 27.296875 75.984375 
L 21.484375 46.09375 
Q 24.90625 50.6875 30.21875 53.34375 
Q 35.546875 56 41.40625 56 
Q 48.640625 56 52.609375 52.09375 
Q 56.59375 48.1875 56.59375 41.109375 
Q 56.59375 39.359375 56.375 37.359375 
Q 56.15625 35.359375 55.71875 33.015625 
z
" id="DejaVuSans-Oblique-104"/>
     </defs>
     <use transform="translate(0 0.046875)" xlink:href="#DejaVuSans-Oblique-116"/>
     <use transform="translate(88.41748 15.484375)" xlink:href="#DejaVuSans-772"/>
     <use transform="translate(39.208984 0.046875)" xlink:href="#DejaVuSans-Oblique-116"/>
     <use transform="translate(78.417969 0.046875)" xlink:href="#DejaVuSans-Oblique-104"/>
    </g>
   </g>
   <g id="text_8">
    <!-- 19.66% -->
    <g transform="translate(395.777172 649.308122)scale(0.2 -0.2)">
     <use xlink:href="#ArialMT-49"/>
     <use x="55.615234" xlink:href="#ArialMT-57"/>
     <use x="111.230469" xlink:href="#ArialMT-46"/>
     <use x="139.013672" xlink:href="#ArialMT-54"/>
     <use x="194.628906" xlink:href="#ArialMT-54"/>
     <use x="250.244141" xlink:href="#ArialMT-37"/>
    </g>
    <!-- ($2.5 \times 10^{5}$) -->
    <g transform="translate(377.291235 674.883122)scale(0.2 -0.2)">
     <use transform="translate(0 0.684375)" xlink:href="#ArialMT-40"/>
     <use transform="translate(33.300781 0.684375)" xlink:href="#DejaVuSans-50"/>
     <use transform="translate(96.923828 0.684375)" xlink:href="#DejaVuSans-46"/>
     <use transform="translate(128.710938 0.684375)" xlink:href="#DejaVuSans-53"/>
     <use transform="translate(211.816406 0.684375)" xlink:href="#DejaVuSans-215"/>
     <use transform="translate(315.087891 0.684375)" xlink:href="#DejaVuSans-49"/>
     <use transform="translate(378.710938 0.684375)" xlink:href="#DejaVuSans-48"/>
     <use transform="translate(443.291016 38.965625)scale(0.7)" xlink:href="#DejaVuSans-53"/>
     <use transform="translate(490.561523 0.684375)" xlink:href="#ArialMT-41"/>
    </g>
   </g>
   <g id="text_9">
    <!-- $t\bar{t}t\bar{t}$ -->
    <g transform="translate(512.778137 1063.393571)scale(0.2 -0.2)">
     <use transform="translate(0 0.046875)" xlink:href="#DejaVuSans-Oblique-116"/>
     <use transform="translate(88.41748 15.484375)" xlink:href="#DejaVuSans-772"/>
     <use transform="translate(39.208984 0.046875)" xlink:href="#DejaVuSans-Oblique-116"/>
     <use transform="translate(78.417969 0.046875)" xlink:href="#DejaVuSans-Oblique-116"/>
     <use transform="translate(166.835449 15.484375)" xlink:href="#DejaVuSans-772"/>
     <use transform="translate(117.626953 0.046875)" xlink:href="#DejaVuSans-Oblique-116"/>
    </g>
   </g>
   <g id="text_10">
    <!-- 19.66% -->
    <g transform="translate(564.819467 862.455726)scale(0.2 -0.2)">
     <use xlink:href="#ArialMT-49"/>
     <use x="55.615234" xlink:href="#ArialMT-57"/>
     <use x="111.230469" xlink:href="#ArialMT-46"/>
     <use x="139.013672" xlink:href="#ArialMT-54"/>
     <use x="194.628906" xlink:href="#ArialMT-54"/>
     <use x="250.244141" xlink:href="#ArialMT-37"/>
    </g>
    <!-- ($2.5 \times 10^{5}$) -->
    <g transform="translate(546.333529 888.030726)scale(0.2 -0.2)">
     <use transform="translate(0 0.684375)" xlink:href="#ArialMT-40"/>
     <use transform="translate(33.300781 0.684375)" xlink:href="#DejaVuSans-50"/>
     <use transform="translate(96.923828 0.684375)" xlink:href="#DejaVuSans-46"/>
     <use transform="translate(128.710938 0.684375)" xlink:href="#DejaVuSans-53"/>
     <use transform="translate(211.816406 0.684375)" xlink:href="#DejaVuSans-215"/>
     <use transform="translate(315.087891 0.684375)" xlink:href="#DejaVuSans-49"/>
     <use transform="translate(378.710938 0.684375)" xlink:href="#DejaVuSans-48"/>
     <use transform="translate(443.291016 38.965625)scale(0.7)" xlink:href="#DejaVuSans-53"/>
     <use transform="translate(490.561523 0.684375)" xlink:href="#ArialMT-41"/>
    </g>
   </g>
   <g id="text_11">
    <!-- $t\bar{t}b\bar{b}/h$ -->
    <g transform="translate(1015.156517 900.757486)scale(0.2 -0.2)">
     <defs>
      <path d="M 49.515625 33.40625 
Q 49.515625 40.484375 46.265625 44.484375 
Q 43.015625 48.484375 37.3125 48.484375 
Q 33.15625 48.484375 29.515625 46.453125 
Q 25.875 44.4375 23.1875 40.578125 
Q 20.359375 36.53125 18.71875 31.171875 
Q 17.09375 25.828125 17.09375 20.515625 
Q 17.09375 13.765625 20.28125 9.9375 
Q 23.484375 6.109375 29.109375 6.109375 
Q 33.34375 6.109375 36.953125 8.078125 
Q 40.578125 10.0625 43.3125 13.921875 
Q 46.09375 17.921875 47.796875 23.234375 
Q 49.515625 28.5625 49.515625 33.40625 
z
M 21.578125 46.390625 
Q 24.90625 50.875 29.90625 53.4375 
Q 34.90625 56 40.375 56 
Q 48.78125 56 53.734375 50.328125 
Q 58.6875 44.671875 58.6875 35.015625 
Q 58.6875 27.09375 55.78125 19.671875 
Q 52.875 12.25 47.515625 6.5 
Q 44 2.6875 39.40625 0.625 
Q 34.8125 -1.421875 29.78125 -1.421875 
Q 24.46875 -1.421875 20.5625 1.015625 
Q 16.65625 3.46875 14.203125 8.296875 
L 12.59375 0 
L 3.609375 0 
L 18.40625 75.984375 
L 27.390625 75.984375 
z
" id="DejaVuSans-Oblique-98"/>
      <path d="M 25.390625 72.90625 
L 33.6875 72.90625 
L 8.296875 -9.28125 
L 0 -9.28125 
z
" id="DejaVuSans-47"/>
     </defs>
     <use transform="translate(0 0.28125)" xlink:href="#DejaVuSans-Oblique-116"/>
     <use transform="translate(88.41748 15.71875)" xlink:href="#DejaVuSans-772"/>
     <use transform="translate(39.208984 0.28125)" xlink:href="#DejaVuSans-Oblique-116"/>
     <use transform="translate(78.417969 0.28125)" xlink:href="#DejaVuSans-Oblique-98"/>
     <use transform="translate(206.169922 21.484375)" xlink:href="#DejaVuSans-772"/>
     <use transform="translate(141.894531 0.28125)" xlink:href="#DejaVuSans-Oblique-98"/>
     <use transform="translate(205.371094 0.28125)" xlink:href="#DejaVuSans-47"/>
     <use transform="translate(239.0625 0.28125)" xlink:href="#DejaVuSans-Oblique-104"/>
    </g>
   </g>
   <g id="text_12">
    <!-- 19.66% -->
    <g transform="translate(821.716765 772.951669)scale(0.2 -0.2)">
     <use xlink:href="#ArialMT-49"/>
     <use x="55.615234" xlink:href="#ArialMT-57"/>
     <use x="111.230469" xlink:href="#ArialMT-46"/>
     <use x="139.013672" xlink:href="#ArialMT-54"/>
     <use x="194.628906" xlink:href="#ArialMT-54"/>
     <use x="250.244141" xlink:href="#ArialMT-37"/>
    </g>
    <!-- ($2.5 \times 10^{5}$) -->
    <g transform="translate(803.230828 798.526669)scale(0.2 -0.2)">
     <use transform="translate(0 0.684375)" xlink:href="#ArialMT-40"/>
     <use transform="translate(33.300781 0.684375)" xlink:href="#DejaVuSans-50"/>
     <use transform="translate(96.923828 0.684375)" xlink:href="#DejaVuSans-46"/>
     <use transform="translate(128.710938 0.684375)" xlink:href="#DejaVuSans-53"/>
     <use transform="translate(211.816406 0.684375)" xlink:href="#DejaVuSans-215"/>
     <use transform="translate(315.087891 0.684375)" xlink:href="#DejaVuSans-49"/>
     <use transform="translate(378.710938 0.684375)" xlink:href="#DejaVuSans-48"/>
     <use transform="translate(443.291016 38.965625)scale(0.7)" xlink:href="#DejaVuSans-53"/>
     <use transform="translate(490.561523 0.684375)" xlink:href="#ArialMT-41"/>
    </g>
   </g>
  </g>
 </g>
</svg>
